<svg width="98" height="146" xmlns="http://www.w3.org/2000/svg" xmlns:xlink="http://www.w3.org/1999/xlink" overflow="hidden"><defs><clipPath id="clip0"><rect x="591" y="296" width="98" height="146"/></clipPath><clipPath id="clip1"><rect x="592" y="297" width="96" height="96"/></clipPath><clipPath id="clip2"><rect x="592" y="297" width="96" height="96"/></clipPath><clipPath id="clip3"><rect x="592" y="297" width="96" height="96"/></clipPath><clipPath id="clip4"><rect x="592" y="345" width="96" height="96"/></clipPath><clipPath id="clip5"><rect x="592" y="345" width="96" height="96"/></clipPath><clipPath id="clip6"><rect x="592" y="345" width="96" height="96"/></clipPath></defs><g clip-path="url(#clip0)" transform="translate(-591 -296)"><g clip-path="url(#clip1)"><g clip-path="url(#clip2)"><g clip-path="url(#clip3)"><path d="M668.187 356.94 663.945 361.183 639.937 337.175 615.922 361.184 611.68 356.941 639.937 328.69 668.187 356.94Z" fill="#66101F"/></g></g></g><g clip-path="url(#clip4)"><g clip-path="url(#clip5)"><g clip-path="url(#clip6)"><path d="M611.813 381.06 616.055 376.817 640.063 400.825 664.078 376.816 668.32 381.059 640.063 409.31 611.813 381.06Z" fill="#05668D"/></g></g></g></g></svg>