<svg width="283" height="308" xmlns="http://www.w3.org/2000/svg" xmlns:xlink="http://www.w3.org/1999/xlink" overflow="hidden"><defs><clipPath id="clip0"><rect x="506" y="191" width="283" height="308"/></clipPath><clipPath id="clip1"><rect x="632" y="342" width="157" height="156"/></clipPath><clipPath id="clip2"><rect x="632" y="342" width="157" height="156"/></clipPath><clipPath id="clip3"><rect x="632" y="342" width="157" height="156"/></clipPath><clipPath id="clip4"><rect x="507" y="192" width="266" height="266"/></clipPath><clipPath id="clip5"><rect x="507" y="192" width="266" height="266"/></clipPath><clipPath id="clip6"><rect x="507" y="192" width="266" height="266"/></clipPath></defs><g clip-path="url(#clip0)" transform="translate(-506 -191)"><g clip-path="url(#clip1)"><g clip-path="url(#clip2)"><g clip-path="url(#clip3)"><path d="M78 16.25C78 16.25 37.375 73.45 37.375 99.125 37.375 121.55 55.575 139.75 78 139.75 100.425 139.75 118.625 121.55 118.625 99.125 118.625 73.2875 78 16.25 78 16.25Z" fill="#05668D" transform="matrix(1.00641 0 0 1 632 342)"/></g></g></g><g clip-path="url(#clip4)"><g clip-path="url(#clip5)"><g clip-path="url(#clip6)"><path d="M548.923 309.819 545.285 305.477C529.42 326.188 520.832 351.556 520.854 377.646L520.854 388.729 526.396 388.729 526.396 377.646C526.382 363.804 528.912 350.078 533.858 337.15L550.242 344.171 552.425 339.079 535.977 332.03C539.439 324.16 543.781 316.709 548.923 309.819Z" fill="#DEE2E6"/><path d="M640 258.5C613.279 258.481 587.335 267.492 566.379 284.072L570.674 287.741C577.977 282.094 585.94 277.355 594.387 273.629L601.433 290.071 606.526 287.887 599.515 271.54C611.568 266.919 624.325 264.403 637.229 264.1L637.229 283.438 642.771 283.438 642.771 264.111C655.674 264.408 668.431 266.915 680.487 271.523L673.474 287.885 678.567 290.068 685.611 273.629C697.683 278.953 708.739 286.332 718.287 295.438L704.541 309.184 708.459 313.102 722.205 299.356C731.311 308.904 738.69 319.96 744.014 332.032L727.575 339.076 729.758 344.169 746.123 337.158C751.075 350.082 753.611 363.806 753.604 377.646L753.604 388.729 759.146 388.729 759.146 377.646C759.071 311.875 705.772 258.575 640 258.5Z" fill="#DEE2E6"/><path d="M650.252 370.674C649.866 370.165 649.398 369.724 648.867 369.369L550.361 285.305C549.188 284.322 547.44 284.476 546.457 285.649 545.602 286.67 545.594 288.154 546.437 289.184L629.886 388.851C632.509 391.882 636.316 393.628 640.324 393.639 643.531 393.636 646.635 392.506 649.094 390.447 654.777 385.452 655.43 376.832 650.565 371.037 650.454 370.922 650.35 370.801 650.252 370.674ZM645.486 386.235C642.048 389.055 636.988 388.612 634.093 385.238L572.115 311.234C572.104 311.223 572.105 311.205 572.116 311.194 572.127 311.184 572.145 311.184 572.156 311.196L645.456 373.747C645.57 373.843 645.692 373.93 645.819 374.008 645.866 374.063 645.91 374.121 645.96 374.182 646.113 374.377 646.278 374.562 646.453 374.736 649.264 378.209 648.838 383.281 645.486 386.235Z" fill="#DEE2E6"/></g></g></g></g></svg>