<?xml version="1.0" encoding="UTF-8" standalone="no"?>
<!DOCTYPE svg PUBLIC "-//W3C//DTD SVG 1.1//EN" "http://www.w3.org/Graphics/SVG/1.1/DTD/svg11.dtd">
<svg width="100%" height="100%" viewBox="0 0 2048 1536" version="1.1" xmlns="http://www.w3.org/2000/svg" xmlns:xlink="http://www.w3.org/1999/xlink" xml:space="preserve" xmlns:serif="http://www.serif.com/" style="fill-rule:evenodd;clip-rule:evenodd;stroke-linecap:round;stroke-linejoin:round;stroke-miterlimit:1.5;">
    <g transform="matrix(1.02719,0,0,1.02719,-390.187,-227.429)">
        <g transform="matrix(1,0,0,1,601,-29)">
            <path d="M545.25,547.549C545.25,434.737 636.839,343.148 749.65,343.148C862.462,343.148 954.051,434.737 954.051,547.549C954.051,660.36 862.462,751.949 749.65,751.949" style="fill:none;stroke:rgb(5,102,141);stroke-width:57.58px;"/>
        </g>
        <path d="M1350.65,722.949L546,722.949" style="fill:none;stroke:rgb(5,102,141);stroke-width:57.58px;"/>
    </g>
    <g transform="matrix(1.39072,0,0,1.39072,-221.885,-205.98)">
        <g transform="matrix(1,0,0,1,601,-29)">
            <path d="M545.25,547.549C545.25,434.737 636.839,343.148 749.65,343.148C862.462,343.148 954.051,434.737 954.051,547.549C954.051,660.36 862.462,751.949 749.65,751.949" style="fill:none;stroke:rgb(5,102,141);stroke-width:42.53px;"/>
        </g>
        <path d="M1350.65,722.949L546,722.949" style="fill:none;stroke:rgb(5,102,141);stroke-width:42.53px;"/>
    </g>
    <g transform="matrix(1.02719,0,0,-1.02719,253.196,1774.46)">
        <g transform="matrix(1,0,0,1,601,-29)">
            <path d="M545.25,547.549C545.25,434.737 636.839,343.148 749.65,343.148C862.462,343.148 954.051,434.737 954.051,547.549C954.051,660.36 862.462,751.949 749.65,751.949" style="fill:none;stroke:rgb(5,102,141);stroke-width:57.58px;"/>
        </g>
        <path d="M1350.65,722.949L546,722.949" style="fill:none;stroke:rgb(5,102,141);stroke-width:57.58px;"/>
    </g>
    <path d="M720.861,1031.85L323.712,1031.85C283.612,1031.85 390.546,1031.85 444.013,1031.85" style="fill:none;stroke:rgb(5,102,141);stroke-width:59.15px;"/>
    <g transform="matrix(1.49483,0,0,1,-221.42,0)">
        <path d="M447.464,799.442L202.617,799.442" style="fill:none;stroke:rgb(5,102,141);stroke-width:46.51px;"/>
    </g>
</svg>
