<?xml version="1.0" encoding="UTF-8" standalone="no"?>
<!DOCTYPE svg PUBLIC "-//W3C//DTD SVG 1.1//EN" "http://www.w3.org/Graphics/SVG/1.1/DTD/svg11.dtd">
<svg width="100%" height="100%" viewBox="0 0 800 800" version="1.1" xmlns="http://www.w3.org/2000/svg" xmlns:xlink="http://www.w3.org/1999/xlink" xml:space="preserve" xmlns:serif="http://www.serif.com/" style="fill-rule:evenodd;clip-rule:evenodd;stroke-linejoin:round;stroke-miterlimit:2;">
    <g transform="matrix(1,0,0,1,-37.5,29.5)">
        <path d="M133.953,243.234L133.953,222.731C133.953,222.731 252.279,306.824 422.698,198.173C593.116,89.522 697.302,91.01 794.046,122.266L794.046,417.708C790.654,416.814 787.307,415.968 784,415.169L784,136.778C687.256,105.522 583.07,104.034 412.651,212.685C271.374,302.757 165.898,260.367 133.953,243.234Z" style="fill:rgb(53,95,65);"/>
    </g>
    <g transform="matrix(1,0,0,1,-31.5,30.5)">
        <path d="M101.953,278.607L101.953,254.731C101.953,254.731 220.279,338.824 390.698,230.173C561.116,121.522 665.302,123.01 762.046,154.266L762.046,449.708C758.393,448.745 754.793,447.838 751.256,446.99L751.256,171.755C654.512,140.499 550.326,139.01 379.907,247.661C239.704,337.049 134.759,295.98 101.953,278.607Z" style="fill:rgb(75,128,89);"/>
    </g>
    <g transform="matrix(1,0,0,1,-52.9186,63.7429)">
        <path d="M400,560.372C243.66,660.686 96.372,552.186 96.372,552.186L96.372,257.488C96.372,257.488 214.698,341.581 385.116,232.93C555.535,124.279 659.721,125.767 756.465,157.023L756.465,452.465C632.186,419.721 570.285,451.11 400,560.372Z" style="fill:rgb(99,163,117);"/>
    </g>
    <g transform="matrix(0.911514,-0.464865,0.0311397,0.9452,-39.5289,299.497)">
        <text x="366.512px" y="459.535px" style="font-family:'BerlinSansFB-Reg', 'Berlin Sans FB', sans-serif;font-size:339.887px;fill:rgb(222,226,230);">$</text>
    </g>
</svg>
