<?xml version="1.0" encoding="UTF-8" standalone="no"?>
<!DOCTYPE svg PUBLIC "-//W3C//DTD SVG 1.1//EN" "http://www.w3.org/Graphics/SVG/1.1/DTD/svg11.dtd">
<svg width="100%" height="100%" viewBox="0 0 1280 800" version="1.1" xmlns="http://www.w3.org/2000/svg" xmlns:xlink="http://www.w3.org/1999/xlink" xml:space="preserve" xmlns:serif="http://www.serif.com/" style="fill-rule:evenodd;clip-rule:evenodd;stroke-linecap:round;stroke-linejoin:round;stroke-miterlimit:1.5;">
    <g transform="matrix(1.50136,0,0,1.50136,-288.947,-207.915)">
        <g transform="matrix(-0.572864,-0.0565201,0.0565201,-0.572864,946.501,685.749)">
            <g transform="matrix(1.17487,0,0,1.27257,-148.888,-133.376)">
                <path d="M631.265,252.356C631.265,244.51 627.535,237.059 621.062,231.975C614.589,226.891 606.025,224.686 597.636,225.944C492.022,241.359 411.128,328.143 411.128,432.896C411.128,548.445 509.768,642.256 631.265,642.256C752.762,642.256 851.402,548.445 851.402,432.896C851.402,398.021 842.245,363.873 824.993,333.469C821.099,326.531 814.067,321.549 805.801,319.872C797.534,318.195 788.888,319.996 782.202,324.787C782.169,324.749 782.168,324.749 782.168,324.749C771.865,332.133 768.869,345.319 775.09,355.903C788.997,379.287 796.368,405.799 796.368,432.896C796.368,519.558 722.388,589.916 631.265,589.916C540.143,589.916 466.163,519.558 466.163,432.896C466.163,353.732 527.762,288.25 607.863,277.441C621.302,275.567 631.237,264.904 631.237,252.356C631.265,252.356 631.265,252.356 631.265,252.356Z" style="fill:rgb(222,110,75);stroke:rgb(222,110,75);stroke-width:0.94px;"/>
            </g>
            <g transform="matrix(0.953982,-4.15013e-17,1.32392e-17,0.990485,-1.10913,13.0155)">
                <circle cx="724.608" cy="212.928" r="59.373" style="fill:rgb(5,102,141);"/>
            </g>
        </g>
        <g transform="matrix(1,0,0,1,39.1432,-13.61)">
            <g transform="matrix(1.17487,0,0,1.27257,-148.888,-133.376)">
                <path d="M631.265,241.658C631.265,236.772 629.032,232.113 625.114,228.828C621.197,225.543 615.96,223.937 610.692,224.405C498.762,234.302 411.128,323.866 411.128,432.896C411.128,548.445 509.768,642.256 631.265,642.256C752.762,642.256 851.402,548.445 851.402,432.896C851.402,394.002 840.013,356.012 818.709,323.112C815.952,318.872 811.361,315.925 806.097,315.016C800.833,314.106 795.398,315.321 791.167,318.353C786.441,321.687 781.342,325.341 776.798,328.597C769.318,333.958 767.334,343.623 772.17,351.14C787.955,375.664 796.368,403.946 796.368,432.896C796.368,519.558 722.388,589.916 631.265,589.916C540.143,589.916 466.163,519.558 466.163,432.896C466.163,351.569 531.173,284.683 614.467,276.679C623.998,275.746 631.231,268.323 631.231,259.474C631.265,253.816 631.265,247.446 631.265,241.658Z" style="fill:rgb(222,110,75);stroke:rgb(222,110,75);stroke-width:0.54px;"/>
            </g>
            <g transform="matrix(1,0,0,1,-40.6511,0)">
                <circle cx="724.608" cy="212.928" r="59.373" style="fill:rgb(5,102,141);"/>
            </g>
        </g>
        <g transform="matrix(1,0,0,1,-16.1353,-14.3542)">
            <circle cx="646.791" cy="417.099" r="68.422" style="fill:rgb(5,102,141);"/>
        </g>
    </g>
</svg>
